<?xml version="1.0" encoding="iso-8859-1"?>
<!-- Generator: Adobe Illustrator 16.0.0, SVG Export Plug-In . SVG Version: 6.00 Build 0)  -->
<!DOCTYPE svg PUBLIC "-//W3C//DTD SVG 1.1//EN" "http://www.w3.org/Graphics/SVG/1.1/DTD/svg11.dtd">
<svg version="1.1" id="Capa_1" xmlns="http://www.w3.org/2000/svg" xmlns:xlink="http://www.w3.org/1999/xlink" x="0px" y="0px"
	 width="546.704px" height="546.704px" viewBox="0 0 546.704 546.704" style="enable-background:new 0 0 546.704 546.704;"
	 xml:space="preserve">
<g>
	<g>
		<path d="M509.106,224.729c-0.641,0.844-1.277,1.685-1.93,2.529c-38.271,49.776-93.652,101.608-158.206,147.745
			c-63.199,45.166-128.239,79.842-185.485,99.98c-1.008,0.355-2.028,0.727-3.031,1.074c-0.935,0.322-1.861,0.627-2.795,0.941
			c36.357,21.682,78.365,33.645,121.775,33.645c49.621,0,97.26-15.301,137.766-44.252c79.531-56.844,113.403-154.105,93.729-244.054
			C510.334,223.133,509.71,223.933,509.106,224.729z"/>
		<path d="M480.338,57.616c-21.705,0-47.793,4.786-76.671,13.762c-2.664-1.64-5.354-3.231-8.078-4.766
			c-2.746-1.542-5.496-3.072-8.299-4.504c-12.195-6.23-24.938-11.346-38.059-15.394c-0.354-0.11-0.714-0.212-1.073-0.322
			c-3.863-1.179-7.768-2.244-11.697-3.228c-0.808-0.2-1.611-0.4-2.424-0.591c-3.492-0.833-7.009-1.571-10.546-2.248
			c-1.114-0.212-2.224-0.433-3.342-0.628c-3.284-0.58-6.589-1.061-9.906-1.501c-1.285-0.171-2.566-0.367-3.859-0.518
			c-3.306-0.384-6.631-0.657-9.956-0.902c-1.248-0.09-2.492-0.229-3.745-0.302c-4.533-0.261-9.082-0.412-13.647-0.412
			c-49.621,0-97.259,15.3-137.765,44.251c-3.179,2.272-6.275,4.619-9.307,7.018c-1.138,0.902-2.228,1.844-3.346,2.767
			c-1.84,1.509-3.684,3.019-5.467,4.573c-1.375,1.2-2.701,2.44-4.039,3.664c-1.444,1.318-2.897,2.636-4.3,3.986
			c-1.457,1.399-2.873,2.835-4.288,4.268c-1.208,1.22-2.411,2.436-3.586,3.676c-1.485,1.571-2.934,3.162-4.37,4.766
			c-1.024,1.143-2.04,2.289-3.04,3.448c-1.481,1.722-2.934,3.459-4.357,5.214c-0.877,1.081-1.746,2.17-2.603,3.264
			c-1.453,1.853-2.88,3.721-4.272,5.614c-0.759,1.032-1.501,2.077-2.244,3.117c-1.404,1.975-2.791,3.958-4.133,5.969
			c-0.661,0.996-1.297,2.003-1.942,3.007c-1.342,2.081-2.672,4.17-3.945,6.288c-0.575,0.958-1.122,1.938-1.681,2.905
			c-1.273,2.183-2.538,4.37-3.737,6.589c-0.494,0.914-0.946,1.844-1.428,2.766c-1.2,2.293-2.399,4.586-3.521,6.916
			c-0.354,0.739-0.673,1.494-1.02,2.236c-1.673,3.566-3.248,7.177-4.741,10.816c-0.926,2.264-1.865,4.524-2.717,6.81
			c-0.383,1.024-0.718,2.064-1.089,3.092c-0.897,2.509-1.791,5.022-2.603,7.561c-0.277,0.869-0.522,1.746-0.792,2.615
			c-0.849,2.75-1.669,5.504-2.416,8.282c-0.188,0.698-0.355,1.399-0.539,2.097c-0.779,2.999-1.514,6.01-2.174,9.037
			c-0.11,0.506-0.212,1.012-0.318,1.518c-0.689,3.268-1.326,6.552-1.881,9.845c-0.049,0.29-0.094,0.583-0.143,0.873
			c-0.587,3.57-1.102,7.148-1.526,10.743c-0.004,0.037-0.008,0.069-0.012,0.106c-2.33,19.665-2.244,39.654,0.42,59.503
			c0.42,3.141,0.89,6.277,1.44,9.412c0.539,3.055,1.138,6.104,1.799,9.146C4.912,380.303-11.6,430.295,8.531,458.463
			c10.824,15.145,31.041,22.318,57.858,22.318c21.616,0,47.54-4.689,76.28-13.596c0.865-0.27,1.722-0.525,2.591-0.799
			c0.975-0.311,1.954-0.629,2.933-0.947c57.328-18.613,125.272-53.582,192.687-101.768
			c69.588-49.734,126.015-104.554,162.086-153.991c0.592-0.812,1.159-1.616,1.738-2.423c0.559-0.775,1.122-1.555,1.673-2.33
			c37.169-52.497,50.779-98.458,31.799-125.011C527.356,64.788,507.14,57.616,480.338,57.616z M478.204,148.469
			c-0.379,0.845-0.771,1.693-1.171,2.546c-22.995,48.862-84.844,112.486-166.194,170.634
			c-78.577,56.16-156.093,93.436-209.663,101.262c-0.947,0.139-1.844,0.221-2.774,0.338c-0.926,0.119-1.853,0.236-2.762,0.34
			c-4.892,0.541-9.649,0.918-14.08,0.918c-19.87,0-34.9-5.525-43.375-17.387c-12.644-17.689-7.907-45.723,10.286-78.592
			c0.788,3.309,1.648,6.605,2.587,9.891c0.946,3.316,1.962,6.621,3.06,9.91c1.105,3.312,2.285,6.613,3.545,9.893
			c0.232,0.613,0.485,1.221,0.726,1.828c1.114,2.832,2.277,5.654,3.509,8.463c0.445,1.012,0.91,2.02,1.371,3.027
			c1.085,2.383,2.207,4.756,3.378,7.119c0.628,1.264,1.277,2.525,1.93,3.781c0.571,1.098,1.093,2.209,1.681,3.301
			c0.053,0.094,0.151,0.139,0.216,0.225c4.504,8.34,9.511,16.508,15.116,24.432c0.906-0.033,1.812-0.07,2.742-0.127
			c0.955-0.061,1.844-0.045,2.819-0.131c50.739-4.373,130.389-41.779,211.605-99.824c92.959-66.439,148.794-131.05,165.114-173.074
			c0.347-0.894,0.624-1.746,0.934-2.619c0.311-0.869,0.645-1.75,0.923-2.599c-3.921-5.284-8.046-10.371-12.358-15.271
			c-0.074-0.126-0.086-0.277-0.188-0.392c-0.677-0.767-1.399-1.485-2.084-2.244c-0.678-0.747-1.371-1.477-2.057-2.211
			c-2.591-2.787-5.23-5.524-7.944-8.172c-0.428-0.417-0.856-0.829-1.289-1.245c-3.108-2.995-6.287-5.899-9.543-8.711
			c-0.098-0.085-0.195-0.171-0.298-0.257c-2.672-2.297-5.386-4.533-8.151-6.708c-2.767-2.174-5.565-4.296-8.422-6.34
			c-2.835-2.028-5.691-4.023-8.608-5.924c8.156-1.191,15.847-1.812,22.962-1.812c22.362,0,39.217,5.981,48.242,18.608
			c9.633,13.48,8.756,32.342-0.637,54.542C478.996,146.739,478.592,147.608,478.204,148.469z"/>
	</g>
</g>
<g>
</g>
<g>
</g>
<g>
</g>
<g>
</g>
<g>
</g>
<g>
</g>
<g>
</g>
<g>
</g>
<g>
</g>
<g>
</g>
<g>
</g>
<g>
</g>
<g>
</g>
<g>
</g>
<g>
</g>
</svg>
